<svg xmlns="http://www.w3.org/2000/svg" xmlns:xlink="http://www.w3.org/1999/xlink" width="1291.323" height="1128.38" viewBox="0 0 341.663 298.55"><defs><linearGradient id="g"><stop offset="0" stop-color="#5bcefa"/><stop offset="1" stop-color="#5bcefa" stop-opacity="0"/></linearGradient><linearGradient xlink:href="#a" id="r" x1="90.713" y1="63.078" x2="130.533" y2="63.078" gradientUnits="userSpaceOnUse" gradientTransform="matrix(.24597 .04502 -.0641 .35608 225.719 864.294)"/><linearGradient id="f"><stop offset="0" stop-color="#429bbb"/><stop offset="1" stop-color="#429bbb" stop-opacity="0"/></linearGradient><linearGradient id="e"><stop offset="0" stop-color="#82dafb"/><stop offset="1" stop-color="#82dafb" stop-opacity="0"/></linearGradient><linearGradient id="c"><stop offset="0" stop-color="#fe66cb"/><stop offset="1" stop-color="#fe66cb" stop-opacity="0"/></linearGradient><linearGradient id="d"><stop offset="0" stop-color="#fe66cb"/><stop offset="1" stop-color="#fe66cb" stop-opacity="0"/></linearGradient><linearGradient id="b"><stop offset="0" stop-color="#82dafb"/><stop offset="1" stop-color="#82dafb" stop-opacity="0"/></linearGradient><linearGradient xlink:href="#b" id="k" x1="71.392" y1="55.663" x2="136.11" y2="55.663" gradientUnits="userSpaceOnUse" gradientTransform="matrix(.25396 .00226 -.00045 .78769 -24.954 732.792)"/><linearGradient xlink:href="#c" id="l" x1="90.713" y1="63.078" x2="130.533" y2="63.078" gradientUnits="userSpaceOnUse" gradientTransform="matrix(-.33273 .00104 .00058 .3618 113.106 649.988)"/><linearGradient xlink:href="#d" id="n" x1="57.696" y1="66.823" x2="117.367" y2="66.823" gradientUnits="userSpaceOnUse" gradientTransform="matrix(-.42998 .00215 .00075 .74934 263.234 804.243)"/><linearGradient xlink:href="#e" id="j" x1="82.411" y1="78.533" x2="127.706" y2="78.533" gradientUnits="userSpaceOnUse" gradientTransform="matrix(-.38242 .0017 .00067 .5909 209.19 718.406)"/><linearGradient xlink:href="#f" id="m" x1="47.719" y1="83.607" x2="96.684" y2="83.607" gradientUnits="userSpaceOnUse" gradientTransform="matrix(.43453 .00098 -.00076 .34072 166.555 867.409)"/><linearGradient xlink:href="#g" id="h" x1="45.497" y1="52.63" x2="95.066" y2="52.63" gradientUnits="userSpaceOnUse" gradientTransform="matrix(-.57472 .00098 .001 .34156 86.931 764.968)"/><linearGradient xlink:href="#a" id="i" x1="100.486" y1="82.449" x2="140.305" y2="82.449" gradientUnits="userSpaceOnUse" gradientTransform="matrix(-.3734 .00208 .00065 .72364 121.924 772.744)"/><linearGradient xlink:href="#a" id="o" x1="57.696" y1="66.823" x2="117.367" y2="66.823" gradientUnits="userSpaceOnUse" gradientTransform="matrix(.28217 .00105 -.0005 .3645 119.42 634.641)"/><linearGradient xlink:href="#f" id="p" x1="47.719" y1="83.607" x2="96.684" y2="83.607" gradientUnits="userSpaceOnUse" gradientTransform="matrix(-.00062 .43453 -.13239 -.00083 36.739 859.553)"/><linearGradient xlink:href="#g" id="q" x1="45.497" y1="52.63" x2="95.066" y2="52.63" gradientUnits="userSpaceOnUse" gradientTransform="matrix(.48147 -.31382 -.18686 -.28591 205.861 802.376)"/><linearGradient id="a"><stop offset="0" stop-color="#fe66cb"/><stop offset="1" stop-color="#fe66cb" stop-opacity="0"/></linearGradient><linearGradient xlink:href="#a" id="s" x1="57.696" y1="66.823" x2="117.367" y2="66.823" gradientUnits="userSpaceOnUse" gradientTransform="matrix(-.42998 -.00031 .00075 -.10831 121.02 910.917)"/><linearGradient xlink:href="#e" id="t" x1="71.392" y1="55.663" x2="136.11" y2="55.663" gradientUnits="userSpaceOnUse" gradientTransform="matrix(.19779 -.06307 -.39965 -.29808 128.585 747.297)"/><linearGradient xlink:href="#a" id="u" x1="57.696" y1="66.823" x2="117.367" y2="66.823" gradientUnits="userSpaceOnUse" gradientTransform="matrix(.35728 .0006 -.00063 .20775 210.033 661.314)"/><linearGradient xlink:href="#g" id="v" x1="45.497" y1="52.63" x2="95.066" y2="52.63" gradientUnits="userSpaceOnUse" gradientTransform="matrix(-.14469 -.33782 .05615 -.30778 11 767.015)"/><linearGradient xlink:href="#f" id="w" x1="47.719" y1="83.607" x2="96.684" y2="83.607" gradientUnits="userSpaceOnUse" gradientTransform="matrix(-.16919 -.00031 .0003 -.10883 159.311 911.458)"/><linearGradient xlink:href="#a" id="x" x1="90.713" y1="63.078" x2="130.533" y2="63.078" gradientUnits="userSpaceOnUse" gradientTransform="matrix(-.07046 -.09938 -.12655 .06532 107.352 765.988)"/><linearGradient xlink:href="#g" id="y" x1="45.497" y1="52.63" x2="95.066" y2="52.63" gradientUnits="userSpaceOnUse" gradientTransform="matrix(.14415 -.00085 -.00025 -.29786 217.24 829.994)"/><linearGradient xlink:href="#a" id="z" x1="57.696" y1="66.823" x2="117.367" y2="66.823" gradientUnits="userSpaceOnUse" gradientTransform="matrix(-.07466 -.07449 -.25986 .2556 150.537 848.487)"/><linearGradient xlink:href="#e" id="A" x1="82.411" y1="78.533" x2="127.706" y2="78.533" gradientUnits="userSpaceOnUse" gradientTransform="matrix(.26074 .0017 -.00046 .5909 159.94 652.893)"/><linearGradient xlink:href="#a" id="B" x1="57.696" y1="66.823" x2="117.367" y2="66.823" gradientUnits="userSpaceOnUse" gradientTransform="matrix(-.15053 .00105 .00026 .3645 272.449 753.974)"/><linearGradient xlink:href="#a" id="C" x1="90.713" y1="63.078" x2="130.533" y2="63.078" gradientUnits="userSpaceOnUse" gradientTransform="matrix(-.33273 .00104 .00058 .3618 167.934 774.842)"/><linearGradient xlink:href="#g" id="D" x1="45.497" y1="52.63" x2="95.066" y2="52.63" gradientUnits="userSpaceOnUse" gradientTransform="matrix(-.13705 .02324 -.11793 -.39419 198.67 857.415)"/><linearGradient xlink:href="#g" id="E" x1="45.497" y1="52.63" x2="95.066" y2="52.63" gradientUnits="userSpaceOnUse" gradientTransform="matrix(.12517 -.61776 -.20804 -.13088 207.808 792.027)"/><linearGradient xlink:href="#a" id="F" x1="57.696" y1="66.823" x2="117.367" y2="66.823" gradientUnits="userSpaceOnUse" gradientTransform="matrix(.28217 .00105 -.0005 .3645 -7.39 809.256)"/><linearGradient xlink:href="#g" id="G" x1="45.497" y1="52.63" x2="95.066" y2="52.63" gradientUnits="userSpaceOnUse" gradientTransform="matrix(-.05077 -.24912 -.15517 .02897 244.345 735.217)"/><linearGradient xlink:href="#e" id="H" x1="82.411" y1="78.533" x2="127.706" y2="78.533" gradientUnits="userSpaceOnUse" gradientTransform="matrix(-.38242 .0017 .00067 .5909 82.514 683.61)"/><linearGradient xlink:href="#f" id="I" x1="47.719" y1="83.607" x2="96.684" y2="83.607" gradientUnits="userSpaceOnUse" gradientTransform="matrix(-.00062 .43453 -.13239 -.00083 218.524 765.757)"/></defs><path d="M60.74 789.44l-28.204-.338 19.237-12.512z" fill="url(#h)" transform="translate(27.734 -641.229)"/><path d="M84.362 822.367l-11.351 27.914-3.375-35.278z" fill="url(#i)" transform="translate(27.734 -641.229)"/><path d="M172.473 751.026l5.19 27.866-17.162-12.437z" fill="url(#j)" transform="translate(27.734 -641.229)"/><path d="M-6.846 771.559L5.84 801.911l3.755-38.29-9.817-11.763z" fill="url(#k)" transform="translate(27.734 -641.229)"/><path d="M82.875 667.78L72.76 681.735l-3.008-17.639z" fill="url(#l)" transform="translate(27.734 -641.229)"/><path d="M191.311 891.15l-4.023 9.981 17.233 3.163 3.928-16.61z" fill="url(#m)" transform="translate(27.734 -641.229)"/><path d="M219.98 855.628l-7.074-19.336 25.497 8.546-4.591 27.883z" fill="url(#n)" transform="translate(27.734 -641.229)"/><path d="M147.804 659.636l4.642-9.405-16.732 4.157 3.013 13.562z" fill="url(#o)" transform="translate(27.734 -641.229)"/><path d="M27.5 884.304l-3.876-4.025-1.238 17.233 6.452 3.931z" fill="url(#p)" transform="translate(27.734 -641.229)"/><path d="M214.5 767.589l23.839-15.078-9.32 20.97z" fill="url(#q)" transform="translate(27.734 -641.229)"/><path d="M244.953 885.806l5.027 15.076 5.33-16.966z" fill="url(#r)" transform="translate(27.734 -641.229)"/><path d="M77.766 903.489l-7.074 2.795 25.497-1.235-4.591-4.03z" fill="url(#s)" transform="translate(27.734 -641.229)"/><path d="M123.118 728.185l-5.45-14.598 22.352 13.575-1.726 6.858z" fill="url(#t)" transform="translate(27.734 -641.229)"/><path d="M245.974 675.56l5.878-5.36-21.186 2.369 3.814 7.73z" fill="url(#u)" transform="translate(27.734 -641.229)"/><path d="M8.404 729.568l-7.164-16.23 2.801 22.573z" fill="url(#v)" transform="translate(27.734 -641.229)"/><path d="M149.672 903.874l1.566-3.188-6.71-1.01-1.529 5.306z" fill="url(#w)" transform="translate(27.734 -641.229)"/><path d="M94.754 760.145l-7.017-.514 5.541-4.076z" fill="url(#x)" transform="translate(27.734 -641.229)"/><path d="M223.808 808.653l7.075.295-4.825 10.91z" fill="url(#y)" transform="translate(27.734 -641.229)"/><path d="M125.273 858.438l5.493-7.83 1.418 7.375-10.464 8.702z" fill="url(#z)" transform="translate(27.734 -641.229)"/><path d="M184.975 685.513l-3.54 27.866 11.702-12.437z" fill="url(#A)" transform="translate(27.734 -641.229)"/><path d="M257.307 778.97l-2.477-9.406 8.926 4.156-1.607 13.563z" fill="url(#B)" transform="translate(27.734 -641.229)"/><path d="M137.703 792.634l-10.115 13.956-3.008-17.638z" fill="url(#C)" transform="translate(27.734 -641.229)"/><path d="M183.974 830.287l-6.592 1.586 8.904 13.622z" fill="url(#D)" transform="translate(27.734 -641.229)"/><path d="M198.65 754.438l6.378-30.168 3.403 25.498z" fill="url(#E)" transform="translate(27.734 -641.229)"/><path d="M20.996 834.25l4.642-9.405-16.732 4.157 3.012 13.563z" fill="url(#F)" transform="translate(27.734 -641.229)"/><path d="M230.928 725.905l-2.316-12.258 7.371 7.296z" fill="url(#G)" transform="translate(27.734 -641.229)"/><path d="M45.797 716.23l5.19 27.865-17.162-12.437z" fill="url(#H)" transform="translate(27.734 -641.229)"/><path d="M209.285 790.508l-3.876-4.025-1.238 17.232 6.452 3.931z" fill="url(#I)" transform="translate(27.734 -641.229)"/></svg>