<svg xmlns="http://www.w3.org/2000/svg" xmlns:xlink="http://www.w3.org/1999/xlink" width="1291.323" height="1128.38" viewBox="0 0 341.663 298.55"><defs><linearGradient id="f"><stop offset="0" stop-color="#d38"/><stop offset="1" stop-color="#d38" stop-opacity="0"/></linearGradient><linearGradient xlink:href="#a" id="k" x1="100.486" y1="82.449" x2="140.305" y2="82.449" gradientUnits="userSpaceOnUse" gradientTransform="matrix(-3.39574 .0095 .00595 3.3113 463.394 564.641)"/><linearGradient id="e"><stop offset="0" stop-color="#d38"/><stop offset="1" stop-color="#d38" stop-opacity="0"/></linearGradient><linearGradient id="d"><stop offset="0" stop-color="#d38"/><stop offset="1" stop-color="#d38" stop-opacity="0"/></linearGradient><linearGradient id="c"><stop offset="0" stop-color="#65e"/><stop offset="1" stop-color="#65e" stop-opacity="0"/></linearGradient><linearGradient id="b"><stop offset="0" stop-color="#65e"/><stop offset="1" stop-color="#65e" stop-opacity="0"/></linearGradient><linearGradient id="a"><stop offset="0" stop-color="#fe66cb"/><stop offset="1" stop-color="#fe66cb" stop-opacity="0"/></linearGradient><linearGradient id="g"><stop offset="0" stop-color="#a9f"/><stop offset="1" stop-color="#a9f" stop-opacity="0"/></linearGradient><linearGradient xlink:href="#b" id="i" x1="651.332" y1="141.92" x2="940.679" y2="141.92" gradientUnits="userSpaceOnUse" gradientTransform="translate(-1592.54 -283.839)"/><linearGradient xlink:href="#c" id="j" x1="141.996" y1="739.597" x2="308.647" y2="739.597" gradientUnits="userSpaceOnUse"/><linearGradient xlink:href="#d" id="m" x1="20.938" y1="774.491" x2="154.866" y2="774.491" gradientUnits="userSpaceOnUse"/><linearGradient xlink:href="#e" id="n" x1="65.932" y1="786.755" x2="267.292" y2="786.755" gradientUnits="userSpaceOnUse"/><linearGradient xlink:href="#f" id="h" x1="-29.695" y1="783.882" x2="312.746" y2="783.882" gradientUnits="userSpaceOnUse"/><linearGradient xlink:href="#g" id="l" x1="31.05" y1="825.517" x2="183.451" y2="825.517" gradientUnits="userSpaceOnUse"/></defs><path transform="matrix(1 -.00336 .0015 1 27.734 -641.229)" fill="url(#h)" d="M-29.695 641.279h342.441v285.206H-29.695z"/><path transform="matrix(-.00148 -1 -1 .0034 27.734 -641.229)" fill="url(#i)" d="M-941.208-313.537h289.347V29.699h-289.347z"/><path d="M308.647 801.88l-166.65-3.275 113.66-121.292z" fill="url(#j)" transform="translate(27.734 -641.229)"/><path d="M121.796 791.713L18.562 919.443l-30.694-161.429z" fill="url(#k)" transform="translate(27.734 -641.229)"/><path d="M137.356 747.439l46.095 156.155L31.05 833.9z" fill="url(#l)" transform="translate(27.734 -641.229)"/><path d="M248.99 86.383L79.366 213.977 29.164 53.01 160.419 3.562z" fill="#a9f"/><path d="M154.866 727.474L51.632 855.205 20.938 693.776z" fill="url(#m)" transform="translate(27.734 -641.229)"/><path d="M297.665 154.152l31.436 97-134.67 30.73-30.694-161.429z" fill="#55e"/><path d="M121.796 791.713l-55.864-85.446 201.36 37.763-36.257 123.213z" fill="url(#n)" transform="translate(27.734 -641.229)"/></svg>