<svg xmlns="http://www.w3.org/2000/svg" xmlns:xlink="http://www.w3.org/1999/xlink" width="1291.323" height="1128.38" viewBox="0 0 341.663 298.55"><defs><linearGradient id="f"><stop offset="0" stop-color="#5bcefa"/><stop offset="1" stop-color="#5bcefa" stop-opacity="0"/></linearGradient><linearGradient xlink:href="#a" id="n" x1="90.713" y1="63.078" x2="130.533" y2="63.078" gradientUnits="userSpaceOnUse" gradientTransform="matrix(-3.39574 .0095 .00595 3.3113 463.394 564.641)"/><linearGradient id="e"><stop offset="0" stop-color="#429bbb"/><stop offset="1" stop-color="#429bbb" stop-opacity="0"/></linearGradient><linearGradient id="d"><stop offset="0" stop-color="#82dafb"/><stop offset="1" stop-color="#82dafb" stop-opacity="0"/></linearGradient><linearGradient id="a"><stop offset="0" stop-color="#fe66cb"/><stop offset="1" stop-color="#fe66cb" stop-opacity="0"/></linearGradient><linearGradient id="c"><stop offset="0" stop-color="#fe66cb"/><stop offset="1" stop-color="#fe66cb" stop-opacity="0"/></linearGradient><linearGradient id="b"><stop offset="0" stop-color="#82dafb"/><stop offset="1" stop-color="#82dafb" stop-opacity="0"/></linearGradient><linearGradient xlink:href="#b" id="m" x1="71.392" y1="55.663" x2="136.11" y2="55.663" gradientUnits="userSpaceOnUse" gradientTransform="matrix(-3.39574 .0095 .00595 3.3113 463.394 564.641)"/><linearGradient id="g"><stop offset="0" stop-color="#fe66cb"/><stop offset="1" stop-color="#fe66cb" stop-opacity="0"/></linearGradient><linearGradient xlink:href="#c" id="p" x1="57.696" y1="66.823" x2="117.367" y2="66.823" gradientUnits="userSpaceOnUse" gradientTransform="matrix(-3.39574 .0095 .00595 3.3113 463.394 564.641)"/><linearGradient xlink:href="#d" id="l" x1="82.411" y1="78.533" x2="127.706" y2="78.533" gradientUnits="userSpaceOnUse" gradientTransform="matrix(-3.39574 .0095 .00595 3.3113 463.394 564.641)"/><linearGradient xlink:href="#e" id="o" x1="47.719" y1="83.607" x2="96.684" y2="83.607" gradientUnits="userSpaceOnUse" gradientTransform="matrix(-3.39574 .0095 .00595 3.3113 463.394 564.641)"/><linearGradient xlink:href="#f" id="j" x1="45.497" y1="52.63" x2="95.066" y2="52.63" gradientUnits="userSpaceOnUse" gradientTransform="matrix(-3.39574 .0095 .00595 3.3113 463.394 564.641)"/><linearGradient xlink:href="#g" id="k" x1="100.486" y1="82.449" x2="140.305" y2="82.449" gradientUnits="userSpaceOnUse" gradientTransform="matrix(-3.39574 .0095 .00595 3.3113 463.394 564.641)"/><linearGradient xlink:href="#a" id="h" x1="161.226" y1="64.938" x2="68.244" y2="37.724" gradientUnits="userSpaceOnUse" gradientTransform="matrix(1.62906 0 0 2.4391 -29.695 640.147)" spreadMethod="pad"/><linearGradient xlink:href="#f" id="i" x1="161.226" y1="64.938" x2="68.244" y2="37.724" gradientUnits="userSpaceOnUse" gradientTransform="matrix(1.37648 0 0 2.9354 651.332 -31.062)"/></defs><path transform="matrix(1 -.00336 .0015 1 27.734 -641.229)" fill="url(#h)" d="M-29.695 641.279h342.441v285.206H-29.695z"/><path transform="matrix(.00148 1 1 -.0034 27.734 -641.229)" fill="url(#i)" d="M651.332-29.698h289.347v343.236H651.332z"/><path d="M308.647 801.88l-166.65-3.275 113.66-121.292z" fill="url(#j)" transform="translate(27.734 -641.229)"/><path d="M121.796 791.713L18.562 919.443l-30.694-161.429z" fill="url(#k)" transform="translate(27.734 -641.229)"/><path d="M137.356 747.439l46.095 156.155L31.05 833.9z" fill="url(#l)" transform="translate(27.734 -641.229)"/><path d="M221.256 727.611L51.632 855.205 1.429 694.24l131.255-49.448z" fill="url(#m)" transform="translate(27.734 -641.229)"/><path d="M154.866 727.474L51.632 855.205 20.938 693.776z" fill="url(#n)" transform="translate(27.734 -641.229)"/><path d="M269.931 795.38l31.436 97-134.67 30.731-30.695-161.429z" fill="url(#o)" transform="translate(27.734 -641.229)"/><path d="M121.796 791.713l-55.864-85.446 201.36 37.763-36.257 123.213z" fill="url(#p)" transform="translate(27.734 -641.229)"/></svg>